<?xml version="1.0" standalone="no"?>
<!DOCTYPE svg PUBLIC "-//W3C//DTD SVG 20010904//EN"
 "http://www.w3.org/TR/2001/REC-SVG-20010904/DTD/svg10.dtd">
<svg version="1.0" xmlns="http://www.w3.org/2000/svg"
 width="512.000000pt" height="512.000000pt" viewBox="0 0 512.000000 512.000000"
 preserveAspectRatio="xMidYMid meet">
<metadata>
Created by potrace 1.14, written by Peter Selinger 2001-2017
</metadata>
<g transform="translate(0.000000,512.000000) scale(0.100000,-0.100000)"
fill="#000000" stroke="none">
<path d="M1581 5105 c-28 -13 -44 -13 -95 -4 -57 11 -66 10 -111 -11 -30 -14
-65 -23 -87 -21 -37 3 -108 -24 -108 -40 0 -5 -24 -9 -52 -9 -72 0 -126 -16
-170 -51 -25 -20 -48 -29 -73 -29 -49 0 -100 -23 -121 -55 -20 -31 -24 -119
-6 -137 8 -8 6 -21 -9 -49 -25 -51 -24 -96 5 -144 16 -27 22 -45 16 -60 -12
-33 -1 -77 30 -123 19 -27 30 -55 30 -78 0 -45 21 -93 53 -123 15 -13 28 -39
32 -62 8 -48 52 -109 98 -138 24 -14 38 -32 42 -52 10 -43 72 -102 123 -117
27 -8 42 -19 42 -29 0 -26 76 -91 121 -103 23 -6 38 -15 33 -19 -5 -4 -43 -31
-86 -60 -228 -156 -334 -352 -353 -654 -5 -90 -20 -123 -72 -163 -64 -48 -133
-124 -178 -193 -42 -67 -98 -191 -109 -246 -4 -16 -9 -41 -12 -55 -14 -57 -13
-218 1 -285 24 -117 84 -241 165 -345 15 -19 33 -59 39 -89 6 -30 30 -106 52
-170 22 -64 44 -136 49 -161 16 -79 18 -84 38 -143 72 -205 272 -422 452 -493
25 -10 70 -36 100 -59 118 -90 272 -177 395 -225 34 -13 80 -41 105 -65 137
-127 281 -201 447 -230 105 -18 170 -13 303 25 189 53 351 130 444 211 22 20
64 44 91 54 115 43 368 190 439 257 11 10 24 18 29 18 19 0 133 63 182 100
109 82 209 200 264 309 30 58 77 203 84 256 2 17 8 41 14 55 18 42 72 212 84
265 7 30 30 75 57 110 75 104 132 225 149 323 11 66 9 241 -4 297 -43 190
-156 373 -296 479 -52 40 -68 76 -73 165 -15 301 -123 497 -365 660 l-86 58
53 17 c51 16 114 72 114 101 0 6 25 22 55 34 56 23 105 72 105 104 0 18 18 39
68 76 41 30 71 79 75 120 2 18 17 46 34 64 39 41 49 62 52 112 1 22 14 57 28
79 33 51 43 89 33 124 -6 22 -2 37 16 68 29 47 31 98 5 140 -11 18 -16 36 -11
45 4 8 11 32 14 54 13 81 -50 145 -142 145 -33 0 -48 6 -65 24 -28 32 -103 56
-172 56 -31 0 -55 5 -55 10 0 15 -48 32 -100 36 -25 1 -69 13 -98 25 -48 21
-57 22 -110 11 -47 -9 -64 -9 -97 3 -54 19 -75 18 -130 -5 -36 -15 -59 -19
-99 -14 -43 5 -60 2 -97 -16 -30 -16 -59 -23 -90 -21 -60 2 -96 -12 -144 -59
-29 -29 -47 -39 -63 -35 -34 6 -61 -7 -121 -61 -86 -77 -150 -175 -201 -307
l-27 -67 -13 42 c-41 127 -136 270 -232 351 -36 30 -56 40 -86 41 -31 1 -50
11 -82 39 -51 47 -79 58 -139 56 -31 -1 -61 5 -90 21 -37 18 -54 21 -98 16
-39 -4 -62 -2 -83 9 -45 23 -110 28 -149 10z"/>
</g>
</svg>
